<mxfile host="Electron" agent="Mozilla/5.0 (Windows NT 10.0; Win64; x64) AppleWebKit/537.36 (KHTML, like Gecko) draw.io/24.7.17 Chrome/128.0.6613.36 Electron/32.0.1 Safari/537.36" version="24.7.17">
  <diagram id="C5RBs43oDa-KdzZeNtuy" name="Page-1">
    <mxGraphModel dx="1050" dy="621" grid="1" gridSize="10" guides="1" tooltips="1" connect="1" arrows="1" fold="1" page="1" pageScale="1" pageWidth="827" pageHeight="1169" math="0" shadow="0">
      <root>
        <mxCell id="WIyWlLk6GJQsqaUBKTNV-0" />
        <mxCell id="WIyWlLk6GJQsqaUBKTNV-1" parent="WIyWlLk6GJQsqaUBKTNV-0" />
        <mxCell id="cjdRNiixMa0TWHEQ3YOh-4" value="" style="edgeStyle=orthogonalEdgeStyle;rounded=0;orthogonalLoop=1;jettySize=auto;html=1;" edge="1" parent="WIyWlLk6GJQsqaUBKTNV-1" source="cjdRNiixMa0TWHEQ3YOh-0" target="cjdRNiixMa0TWHEQ3YOh-3">
          <mxGeometry relative="1" as="geometry" />
        </mxCell>
        <mxCell id="cjdRNiixMa0TWHEQ3YOh-0" value="Bắt đầu" style="ellipse;whiteSpace=wrap;html=1;" vertex="1" parent="WIyWlLk6GJQsqaUBKTNV-1">
          <mxGeometry x="350" y="90" width="120" height="80" as="geometry" />
        </mxCell>
        <mxCell id="cjdRNiixMa0TWHEQ3YOh-6" value="" style="edgeStyle=orthogonalEdgeStyle;rounded=0;orthogonalLoop=1;jettySize=auto;html=1;" edge="1" parent="WIyWlLk6GJQsqaUBKTNV-1" source="cjdRNiixMa0TWHEQ3YOh-3" target="cjdRNiixMa0TWHEQ3YOh-5">
          <mxGeometry relative="1" as="geometry" />
        </mxCell>
        <mxCell id="cjdRNiixMa0TWHEQ3YOh-3" value="Nhập 2 số A và B" style="shape=parallelogram;perimeter=parallelogramPerimeter;whiteSpace=wrap;html=1;fixedSize=1;rotation=0;" vertex="1" parent="WIyWlLk6GJQsqaUBKTNV-1">
          <mxGeometry x="340" y="260" width="140" height="70" as="geometry" />
        </mxCell>
        <mxCell id="cjdRNiixMa0TWHEQ3YOh-8" value="False" style="edgeStyle=orthogonalEdgeStyle;rounded=0;orthogonalLoop=1;jettySize=auto;html=1;" edge="1" parent="WIyWlLk6GJQsqaUBKTNV-1" source="cjdRNiixMa0TWHEQ3YOh-5" target="cjdRNiixMa0TWHEQ3YOh-7">
          <mxGeometry relative="1" as="geometry" />
        </mxCell>
        <mxCell id="cjdRNiixMa0TWHEQ3YOh-10" value="True" style="edgeStyle=orthogonalEdgeStyle;rounded=0;orthogonalLoop=1;jettySize=auto;html=1;" edge="1" parent="WIyWlLk6GJQsqaUBKTNV-1" source="cjdRNiixMa0TWHEQ3YOh-5" target="cjdRNiixMa0TWHEQ3YOh-9">
          <mxGeometry relative="1" as="geometry" />
        </mxCell>
        <mxCell id="cjdRNiixMa0TWHEQ3YOh-5" value="Nếu A &amp;lt; B" style="rhombus;whiteSpace=wrap;html=1;" vertex="1" parent="WIyWlLk6GJQsqaUBKTNV-1">
          <mxGeometry x="370" y="405" width="80" height="80" as="geometry" />
        </mxCell>
        <mxCell id="cjdRNiixMa0TWHEQ3YOh-7" value="A lớn hơn B" style="shape=parallelogram;perimeter=parallelogramPerimeter;whiteSpace=wrap;html=1;fixedSize=1;" vertex="1" parent="WIyWlLk6GJQsqaUBKTNV-1">
          <mxGeometry x="540" y="410" width="140" height="65" as="geometry" />
        </mxCell>
        <mxCell id="cjdRNiixMa0TWHEQ3YOh-12" value="" style="edgeStyle=orthogonalEdgeStyle;rounded=0;orthogonalLoop=1;jettySize=auto;html=1;" edge="1" parent="WIyWlLk6GJQsqaUBKTNV-1" source="cjdRNiixMa0TWHEQ3YOh-9" target="cjdRNiixMa0TWHEQ3YOh-11">
          <mxGeometry relative="1" as="geometry" />
        </mxCell>
        <mxCell id="cjdRNiixMa0TWHEQ3YOh-9" value="A nhỏ hơn B" style="shape=parallelogram;perimeter=parallelogramPerimeter;whiteSpace=wrap;html=1;fixedSize=1;" vertex="1" parent="WIyWlLk6GJQsqaUBKTNV-1">
          <mxGeometry x="350" y="570" width="130" height="65" as="geometry" />
        </mxCell>
        <mxCell id="cjdRNiixMa0TWHEQ3YOh-11" value="Kết thúc" style="ellipse;whiteSpace=wrap;html=1;" vertex="1" parent="WIyWlLk6GJQsqaUBKTNV-1">
          <mxGeometry x="347.5" y="710" width="135" height="80" as="geometry" />
        </mxCell>
        <mxCell id="cjdRNiixMa0TWHEQ3YOh-14" value="" style="endArrow=classic;html=1;rounded=0;exitX=0.5;exitY=1;exitDx=0;exitDy=0;entryX=1;entryY=0.5;entryDx=0;entryDy=0;" edge="1" parent="WIyWlLk6GJQsqaUBKTNV-1" source="cjdRNiixMa0TWHEQ3YOh-7" target="cjdRNiixMa0TWHEQ3YOh-11">
          <mxGeometry width="50" height="50" relative="1" as="geometry">
            <mxPoint x="380" y="710" as="sourcePoint" />
            <mxPoint x="430" y="660" as="targetPoint" />
            <Array as="points">
              <mxPoint x="610" y="750" />
            </Array>
          </mxGeometry>
        </mxCell>
      </root>
    </mxGraphModel>
  </diagram>
</mxfile>
